<region> lovel=1 hivel=6 amp_velcurve_6=1 sample=../samples/snares/sn12bop/brs/snare_on/cls/sn12wbop_brsr_cls_009r.wav
<region> lovel=7 hivel=12 amp_velcurve_12=1 sample=../samples/snares/sn12bop/brs/snare_on/cls/sn12wbop_brsr_cls_014r.wav
<region> lovel=13 hivel=18 amp_velcurve_18=1 sample=../samples/snares/sn12bop/brs/snare_on/cls/sn12wbop_brsr_cls_019r.wav
<region> lovel=19 hivel=24 amp_velcurve_24=1 sample=../samples/snares/sn12bop/brs/snare_on/cls/sn12wbop_brsr_cls_020r.wav
<region> lovel=25 hivel=30 amp_velcurve_30=1 sample=../samples/snares/sn12bop/brs/snare_on/cls/sn12wbop_brsr_cls_022r.wav
<region> lovel=31 hivel=36 amp_velcurve_36=1 sample=../samples/snares/sn12bop/brs/snare_on/cls/sn12wbop_brsr_cls_023r.wav
<region> lovel=37 hivel=42 amp_velcurve_42=1 sample=../samples/snares/sn12bop/brs/snare_on/cls/sn12wbop_brsr_cls_024r.wav
<region> lovel=43 hivel=48 amp_velcurve_48=1 sample=../samples/snares/sn12bop/brs/snare_on/cls/sn12wbop_brsr_cls_025r.wav
<region> lovel=49 hivel=54 amp_velcurve_54=1 sample=../samples/snares/sn12bop/brs/snare_on/cls/sn12wbop_brsr_cls_026r.wav
<region> lovel=55 hivel=60 amp_velcurve_60=1 sample=../samples/snares/sn12bop/brs/snare_on/cls/sn12wbop_brsr_cls_027r.wav
<region> lovel=61 hivel=66 amp_velcurve_66=1 sample=../samples/snares/sn12bop/brs/snare_on/cls/sn12wbop_brsr_cls_028r.wav
<region> lovel=67 hivel=72 amp_velcurve_72=1 sample=../samples/snares/sn12bop/brs/snare_on/cls/sn12wbop_brsr_cls_029r.wav
<region> lovel=73 hivel=78 amp_velcurve_78=1 sample=../samples/snares/sn12bop/brs/snare_on/cls/sn12wbop_brsr_cls_030r.wav
<region> lovel=79 hivel=85 amp_velcurve_85=1 sample=../samples/snares/sn12bop/brs/snare_on/cls/sn12wbop_brsr_cls_031r.wav
<region> lovel=86 hivel=92 amp_velcurve_92=1 sample=../samples/snares/sn12bop/brs/snare_on/cls/sn12wbop_brsr_cls_032r.wav
<region> lovel=93 hivel=99 amp_velcurve_99=1 sample=../samples/snares/sn12bop/brs/snare_on/cls/sn12wbop_brsr_cls_033r.wav
<region> lovel=100 hivel=106 amp_velcurve_106=1 sample=../samples/snares/sn12bop/brs/snare_on/cls/sn12wbop_brsr_cls_035r.wav
<region> lovel=107 hivel=113 amp_velcurve_113=1 sample=../samples/snares/sn12bop/brs/snare_on/cls/sn12wbop_brsr_cls_036r.wav
<region> lovel=114 hivel=120 amp_velcurve_120=1 sample=../samples/snares/sn12bop/brs/snare_on/cls/sn12wbop_brsr_cls_037r.wav
<region> lovel=121 hivel=127 amp_velcurve_127=1 sample=../samples/snares/sn12bop/brs/snare_on/cls/sn12wbop_brsr_cls_038r.wav
